<?xml version="1.0" standalone="no"?>
<!DOCTYPE svg PUBLIC "-//W3C//DTD SVG 20010904//EN"
 "http://www.w3.org/TR/2001/REC-SVG-20010904/DTD/svg10.dtd">
<svg version="1.0" xmlns="http://www.w3.org/2000/svg"
 width="1024.000000pt" height="562.000000pt" viewBox="0 0 1024.000000 562.000000"
 preserveAspectRatio="xMidYMid meet">

<g transform="translate(0.000000,562.000000) scale(0.100000,-0.100000)"
fill="#000000" stroke="none">
<path d="M4858 4193 c6 -2 18 -2 25 0 6 3 1 5 -13 5 -14 0 -19 -2 -12 -5z"/>
<path d="M4908 4182 c6 -5 126 -206 265 -448 140 -241 307 -531 372 -644 65
-113 128 -222 139 -242 12 -21 28 -39 36 -41 8 -2 -35 -1 -96 1 -141 6 -236
-13 -364 -75 -80 -38 -107 -59 -180 -132 -75 -76 -99 -110 -199 -285 -63 -109
-114 -204 -114 -210 0 -6 54 -103 120 -216 66 -113 285 -491 488 -840 202
-349 372 -639 377 -645 6 -5 5 0 -1 12 -11 22 40 115 524 948 246 424 258 446
246 471 -22 48 -2 22 45 -58 69 -121 193 -240 304 -296 231 -115 473 -104 696
29 104 62 180 151 279 325 131 229 148 262 127 235 l-19 -24 -80 139 c-44 77
-158 274 -253 439 -95 165 -205 354 -243 420 -39 66 -104 178 -144 248 l-73
129 16 31 c52 103 -46 -62 -396 -665 -216 -373 -395 -678 -399 -678 -3 0 -224
379 -491 842 -267 463 -506 876 -532 918 -86 141 -239 260 -387 304 -59 17
-83 20 -63 8z"/>
<path d="M2411 3338 c11 -26 7 -33 -108 -170 -178 -212 -350 -417 -393 -468
-116 -138 -291 -346 -353 -422 l-72 -86 -18 21 c-17 20 -17 18 1 -13 222 -392
1071 -1859 1102 -1905 46 -67 161 -168 235 -207 75 -39 178 -73 198 -65 8 4 7
6 -3 6 -10 1 -104 154 -245 399 -126 218 -267 462 -313 542 -46 80 -120 208
-164 285 -45 77 -84 142 -89 145 -4 3 54 5 129 6 121 0 147 3 217 27 136 45
265 135 345 241 61 81 259 430 251 441 -5 5 -167 285 -361 620 -330 570 -390
671 -359 603z"/>
<path d="M3028 13 c7 -3 16 -2 19 1 4 3 -2 6 -13 5 -11 0 -14 -3 -6 -6z"/>
</g>
</svg>
